<?xml version="1.0" standalone="no"?>
<!DOCTYPE svg PUBLIC "-//W3C//DTD SVG 20010904//EN"
 "http://www.w3.org/TR/2001/REC-SVG-20010904/DTD/svg10.dtd">
<svg version="1.0" xmlns="http://www.w3.org/2000/svg"
 width="260.000000pt" height="260.000000pt" viewBox="0 0 260.000000 260.000000"
 preserveAspectRatio="xMidYMid meet">
<metadata>
Created by potrace 1.11, written by Peter Selinger 2001-2013
</metadata>
<g transform="translate(0.000000,260.000000) scale(0.100000,-0.100000)"
fill="#000000" stroke="none">
<path d="M805 2540 c-189 -26 -346 -134 -417 -287 -28 -58 -32 -80 -36 -173
-7 -172 33 -275 190 -480 224 -294 268 -382 268 -540 0 -99 -21 -159 -70 -204
-56 -50 -131 -70 -242 -64 -161 10 -260 80 -305 218 -19 58 -25 248 -10 303 6
23 4 27 -12 27 -23 0 -21 6 -62 -185 -26 -127 -80 -323 -104 -387 -5 -14 -2
-18 13 -18 15 0 28 16 50 64 42 89 52 90 165 22 129 -78 161 -87 308 -93 142
-6 240 10 341 54 54 24 58 28 82 89 14 35 26 73 26 83 0 26 39 73 53 64 7 -4
20 -6 30 -5 28 5 30 -23 5 -65 -41 -64 -42 -69 -16 -45 15 14 28 19 32 13 4
-5 2 -12 -4 -16 -5 -3 -10 -15 -10 -25 0 -17 2 -17 31 -3 18 9 28 21 25 28 -3
8 9 31 25 52 36 45 210 213 222 213 4 0 35 18 67 40 32 22 66 40 75 40 9 0 19
8 22 19 2 10 15 24 28 31 21 11 71 87 63 95 -2 3 -21 -12 -41 -31 -27 -26 -43
-35 -58 -31 -24 6 -65 -25 -55 -41 3 -6 -2 -8 -13 -5 -20 5 -156 -83 -236
-153 -23 -19 -46 -39 -51 -42 -5 -4 -17 -20 -26 -37 -9 -16 -20 -30 -25 -30
-13 0 -15 105 -3 135 6 15 22 33 36 40 19 11 24 21 24 54 0 120 -68 248 -251
476 -211 264 -259 351 -259 477 0 90 18 141 69 194 135 139 400 88 482 -93 21
-46 24 -68 24 -170 0 -105 2 -118 17 -118 12 0 19 11 23 38 13 73 75 318 99
390 l25 72 -23 0 c-18 0 -25 -9 -35 -42 -16 -51 -39 -88 -56 -88 -6 0 -50 23
-96 50 -130 79 -265 109 -404 90z m553 -1352 c-3 -7 -13 -15 -24 -17 -16 -3
-17 -1 -5 13 16 19 34 21 29 4z m-94 -82 c-3 -9 -12 -16 -20 -16 -18 0 -18 5
2 25 19 19 27 15 18 -9z m-176 -33 c-2 -10 -11 -19 -21 -21 -16 -3 -17 -1 -7
17 13 25 33 28 28 4z m142 3 c0 -3 -4 -8 -10 -11 -5 -3 -10 -1 -10 4 0 6 5 11
10 11 6 0 10 -2 10 -4z m-50 -55 c0 -5 -7 -11 -14 -14 -10 -4 -13 -1 -9 9 6
15 23 19 23 5z"/>
<path d="M2000 1840 c-207 -26 -396 -120 -558 -279 -72 -70 -168 -192 -197
-251 -18 -35 -18 -35 2 -17 24 21 33 22 33 2 0 -24 15 -18 31 13 15 28 31 45
63 63 17 10 18 8 12 -16 -11 -43 23 -28 54 25 24 42 31 47 113 74 89 30 112
30 83 1 -20 -20 -20 -21 -1 -29 10 -4 31 18 67 72 76 113 172 203 265 249 71
35 83 38 163 38 75 0 91 -4 139 -30 64 -35 112 -97 137 -175 18 -57 23 -207 9
-289 -6 -39 -6 -41 19 -41 18 0 26 5 26 17 0 27 69 327 97 421 14 48 28 95 31
105 4 15 0 18 -18 15 -17 -2 -27 -16 -41 -54 -11 -28 -30 -61 -44 -74 l-24
-22 -64 61 c-73 71 -110 96 -164 110 -59 15 -161 20 -233 11z"/>
<path d="M1565 1236 c-27 -20 -11 -33 20 -16 20 10 27 11 40 0 19 -16 54 -5
37 12 -17 17 -76 20 -97 4z"/>
<path d="M1396 1091 c-3 -5 -4 -16 0 -24 3 -8 -2 -17 -13 -21 -10 -4 -19 -2
-21 4 -3 7 -9 4 -16 -6 -11 -14 -18 -15 -46 -6 -25 9 -36 9 -47 0 -30 -24 26
-38 155 -37 l44 0 -27 -35 c-29 -39 -53 -52 -69 -36 -14 14 -26 13 -26 -3 0
-7 -21 -19 -47 -26 -27 -8 -54 -18 -60 -24 -9 -6 -18 -5 -28 3 -15 12 -35 6
-35 -11 0 -5 18 -9 39 -9 51 0 60 -14 18 -30 -17 -6 -44 -18 -59 -26 -39 -21
-61 -18 -53 6 5 16 2 20 -15 20 -17 0 -20 -4 -15 -20 4 -11 2 -20 -4 -20 -6 0
-11 -9 -11 -20 0 -16 5 -19 24 -14 35 9 41 -12 6 -25 l-30 -10 0 -104 c0 -181
54 -332 156 -434 95 -96 233 -143 419 -143 156 0 245 29 392 126 47 31 90 53
98 50 11 -4 15 -23 15 -76 0 -66 1 -70 23 -70 21 0 24 7 36 75 7 42 35 171 62
288 27 117 49 215 49 220 0 4 -10 7 -23 7 -18 0 -26 -11 -46 -67 -34 -95 -102
-229 -147 -289 -84 -111 -206 -183 -325 -192 -159 -11 -260 78 -303 269 -39
174 -22 458 40 676 6 20 4 22 -22 14 -16 -5 -37 -12 -47 -16 -15 -6 -18 -4
-15 15 3 24 -15 39 -26 21z"/>
<path d="M1010 730 c0 -5 5 -10 10 -10 6 0 10 5 10 10 0 6 -4 10 -10 10 -5 0
-10 -4 -10 -10z"/>
</g>
</svg>
